<?xml version="1.0" encoding="UTF-8"?> <!-- Generator: Adobe Illustrator 24.3.0, SVG Export Plug-In . SVG Version: 6.00 Build 0) --> <svg xmlns="http://www.w3.org/2000/svg" xmlns:xlink="http://www.w3.org/1999/xlink" version="1.1" id="Layer_1" x="0px" y="0px" viewBox="0 0 501.4 226.5" style="enable-background:new 0 0 501.4 226.5;" xml:space="preserve"> <style type="text/css"> .st0{fill:#495057;} </style> <g> <g> <g> <path class="st0" d="M340.3,107.1c4.4,0,8.2,2.2,11.4,5.7l4.4-3.3c-4.1-4.7-9.7-7.4-15.8-7.4c-13.1,0-22.4,9.4-22.4,22.4 c0,13,9.3,22.4,22.4,22.4c6.1,0,11.5-2.4,15.7-7.4l-4.2-3.5c-2.9,3.5-6.8,5.9-11.4,5.9c-10.4,0-16.9-7.8-16.9-17.4 C323.4,114.9,329.9,107.1,340.3,107.1z"></path> <path class="st0" d="M395.8,117.5c0-10.8-6.6-15.4-16.9-15.4c-5.5,0-12.2,2.1-16.2,6l3.2,3.8c3.8-3.2,8-4.8,13-4.8 c6.8,0,12,2.9,12,10.3v2.6h-6.4c-8.4,0-23.6,1.3-23.6,14.3c0,9,7.7,12.6,15,12.6c7.2,0,11.8-2.6,14.9-8h0.2 c0,2.4,0.2,4.8,0.6,6.9h5.2c-0.6-4.9-0.8-9.6-0.8-17.9V117.5z M390.8,127.2c0,7.1-3,14.6-14.8,14.6c-4.6,0-9.7-2.7-9.7-7.9 c0-7.3,9.2-9.6,18.4-9.6h6.1V127.2z"></path> <path class="st0" d="M411.2,113.9c0-4.4,5.1-6.8,9-6.8c5,0,7.9,2.1,10,6l5-2.9c-2.8-5.4-8.1-8-15-8c-7,0-14.5,4-14.5,12.2 c0,16.2,25.2,8,25.2,19.7c0,4.9-5,7.8-9.8,7.8c-5,0-10-2.5-12.3-7l-4.9,3.3c3.3,5.9,9.9,8.7,17.1,8.7c8.1,0,15.4-4.4,15.4-13.2 C436.4,116.5,411.2,125.4,411.2,113.9z"></path> <path class="st0" d="M477.3,127.9v-10.4c0-10.8-6.6-15.4-16.9-15.4c-5.5,0-12.2,2.1-16.2,6l3.2,3.8c3.8-3.2,8-4.8,13-4.8 c6.8,0,12,2.9,12,10.3v2.6h-6.4c-8.4,0-23.6,1.3-23.6,14.3c0,9,7.7,12.6,15,12.6c7.2,0,11.8-2.6,14.9-8h0.2 c0,2.4,0.2,4.8,0.6,6.9h5.2C477.4,140.9,477.3,136.2,477.3,127.9z M472.3,127.2c0,7.1-3,14.6-14.8,14.6c-4.6,0-9.7-2.7-9.7-7.9 c0-7.3,9.2-9.6,18.4-9.6h6.1V127.2z"></path> </g> <g> <path class="st0" d="M201.2,158.4c-6.6,0-11.8,3.5-13.9,6.9v-24.1l-7.7,0v62.2h7.7V182c0-10.7,4.7-16.5,13.3-16.5 c8.1,0,9.7,6.3,9.7,11.6v26.4h7.7v-27.1C218,164.8,212,158.4,201.2,158.4z"></path> <path class="st0" d="M233.5,142.3c-3,0-5.5,2.5-5.5,5.5c0,3.2,2.3,5.5,5.5,5.5c3.2,0,5.5-2.3,5.5-5.5 C239,144.8,236.6,142.3,233.5,142.3z"></path> <rect x="229.7" y="159.5" class="st0" width="7.7" height="44"></rect> <path class="st0" d="M270.7,158.4c-7.2,0-12.4,3.9-14.5,7.9c0-1-0.1-2.1-0.1-3.1c0-1.2-0.1-2.4-0.1-3.5v-0.2h-7.3v0.2 c0,1.3,0.1,2.8,0.2,4.3c0.1,1.8,0.2,3.8,0.2,6v33.4h7.7V182c0-10.5,4.3-16,12.5-16c1.3,0,2.7,0.2,3.8,0.5l0.3,0.1l0.5-7.8 l-0.2-0.1C272.8,158.5,271.8,158.4,270.7,158.4z"></path> <rect x="280.1" y="159.5" class="st0" width="7.7" height="44"></rect> <path class="st0" d="M284,142.3c-3,0-5.5,2.5-5.5,5.5c0,3.2,2.3,5.5,5.5,5.5c3.2,0,5.5-2.3,5.5-5.5 C289.5,144.8,287,142.3,284,142.3z"></path> <rect x="300.1" y="138.8" class="st0" width="7.7" height="64.7"></rect> <path class="st0" d="M354.7,177c0-12.3-5.4-18.4-18.2-18.4c-6.3,0-12.8,2.1-17.3,6.7l4.6,4.7c3.4-3.2,8.3-4.7,12.9-4.7 c6.8,0,10.8,3.3,10.8,9.6v1.3h-2.8c-10.7,0-27.5,0.8-27.5,15.3c0,8.5,7.4,12.9,16.2,12.9c6.6,0,11.4-3.2,14.3-7.6h0.2 c0,1.9,0,4.6,0.5,6.5h7c-0.4-2.2-0.7-5-0.7-7.5V177z M347.5,185.1c-0.2,7.1-4.5,13.1-12.8,13.1c-5.5,0-9.6-2.1-9.6-7.5 c0-5.9,6-8.4,15.2-8.4h7.3V185.1z"></path> <path class="st0" d="M400,167.2h-0.2c-2.9-5.8-9.5-8.6-15.4-8.6c-13.9,0-23.2,8.7-23.2,22.9c0,12.8,9.5,22.3,23.2,22.3 c5.8,0,11.9-2.5,15.4-8.1h0.2v5.6c0,9.2-3.4,17.6-16.5,17.6c-6.7,0-11.6-2.6-16.2-7.5l-5.2,6c6.1,6.1,12.9,8.3,21.4,8.3 c15.3,0,23.7-8.6,23.7-24.3v-41.6H400V167.2z M384.5,197.1c-8.5,0-15.4-6.8-15.4-15.6c0-9.1,6.2-16.2,15.4-16.2 c9.2,0,15.5,6.6,15.5,16C400,189.7,394.5,197.1,384.5,197.1z"></path> <path class="st0" d="M454.5,159.7h-7.3v21.2c0,10-4.1,16.8-13.5,16.8c-6.8,0-10-4.6-10-11.8v-26.2h-7.3v26.9 c0,10.5,5.1,17.8,16.6,17.8c7.2,0,12.6-4,14.5-8.3h0.2c0,2.4,0.2,4.8,0.2,7.2h6.9c0-2.9-0.4-6.3-0.4-10.3V159.7z"></path> <path class="st0" d="M499.1,195.7V177c0-12.3-5.4-18.4-18.2-18.4c-6.3,0-12.8,2.1-17.3,6.7l4.6,4.7c3.4-3.2,8.3-4.7,12.9-4.7 c6.8,0,10.8,3.3,10.8,9.6v1.3H489c-10.7,0-27.5,0.8-27.5,15.3c0,8.5,7.4,12.9,16.2,12.9c6.6,0,11.4-3.2,14.3-7.6h0.2 c0,1.9,0,4.6,0.5,6.5h7C499.4,201,499.1,198.2,499.1,195.7z M491.8,185.1c-0.2,7.1-4.5,13.1-12.8,13.1c-5.5,0-9.6-2.1-9.6-7.5 c0-5.9,6-8.4,15.2-8.4h7.3V185.1z"></path> <path class="st0" d="M168.4,189.9c-4,5.1-9.3,7.6-15.8,7.6c-11.9,0-20.8-9.8-20.8-22.7c0-12.7,9.1-22.7,20.8-22.7 c5.5,0,10.5,2.4,13.6,6.6l0.3,0.3l6.5-4.7l-0.3-0.4c-4.4-5.7-11.5-8.9-20-8.9c-16.4,0-28.8,12.8-28.8,29.7 c0,16.9,12.4,29.7,28.8,29.7c9.3,0,16.6-3.3,21.5-9.9l0.2-0.3l-5.6-4.7L168.4,189.9z"></path> </g> </g> <g> <path class="st0" d="M96.6,84.7c0,0,8.5-4.9-6.5-11.8C87.9,89.3,96.6,84.7,96.6,84.7z"></path> <path class="st0" d="M128.7,48.5c0,0,9.3,2.8,4-12.7C119.5,45.4,128.7,48.5,128.7,48.5z"></path> <path class="st0" d="M132.3,65.2c0,0,9.3,2.8,4-12.7C123.1,62,132.3,65.2,132.3,65.2z"></path> <path class="st0" d="M73.4,86c0,0,12.9,2.8,4.2-17.6C60.7,82.7,73.4,86,73.4,86z"></path> <path class="st0" d="M92.3,34.4c0,0,10.5,3.1,4.6-14.3C81.9,30.8,92.3,34.4,92.3,34.4z"></path> <path class="st0" d="M113.8,16.6c0,0,10.6,5.2,7.4-14.4C103.4,11,113.8,16.6,113.8,16.6z"></path> <path class="st0" d="M75.6,32.7c0,0,5.8-12.1-16.5-8.3C69.4,44.6,75.6,32.7,75.6,32.7z"></path> <path class="st0" d="M41.4,38.8c0,0,4.9-8.4-11.3-7C36.1,46.9,41.4,38.8,41.4,38.8z"></path> <path class="st0" d="M56.6,62.1c0,0,9.7,0.5,1-13.3C47,61.3,56.6,62.1,56.6,62.1z"></path> <path class="st0" d="M37.8,70.2c0,0,6.4-5.3-7.1-8.9C31.3,75.3,37.8,70.2,37.8,70.2z"></path> <path class="st0" d="M108.1,41.9c0,0,6.4-5.3-7.1-8.9C101.5,47,108.1,41.9,108.1,41.9z"></path> <path class="st0" d="M14.5,66.6c0,0,6.4-5.3-7.1-8.9C7.9,71.7,14.5,66.6,14.5,66.6z"></path> <path class="st0" d="M50,31.1c0,0,14.9,0.5,1.1-20.4C35.1,30,50,31.1,50,31.1z"></path> <path class="st0" d="M142.2,70.2c0,0-1.7,13.4,18.4,2.7C144.4,56.8,142.2,70.2,142.2,70.2z"></path> <path class="st0" d="M137,49.9c0,0,7.3,13.4,18.5-9.6C130.2,36.3,137,49.9,137,49.9z"></path> <path class="st0" d="M149.4,58.8c0,0,3.3,15.2,20.9-4.1C146.7,43.5,149.4,58.8,149.4,58.8z"></path> <path class="st0" d="M83.6,58c0,0,12.3-6.3-8.3-17C71.1,63.8,83.6,58,83.6,58z"></path> <path class="st0" d="M82.9,40.2c0,0,12.5-1.3-1.4-17.2C70.3,41,82.9,40.2,82.9,40.2z"></path> <path class="st0" d="M119.7,79.5c0,0,4.1,14.2,19.5-5.2C116.2,65.2,119.7,79.5,119.7,79.5z"></path> <path class="st0" d="M31.6,102.8c0,0-8.5-5.9-8.3,11.5C39.9,108.9,31.6,102.8,31.6,102.8z"></path> <path class="st0" d="M35,78.5c0,0-7.4-12.3-17.1,9.8C41.9,91.1,35,78.5,35,78.5z"></path> <path class="st0" d="M12.1,84.3c0,0-7.6-5.1-7.1,10.3C19.5,89.7,12.1,84.3,12.1,84.3z"></path> <path class="st0" d="M146,89.5c0,0-6.7,8.9,12,9.4C153,80.9,146,89.5,146,89.5z"></path> <path class="st0" d="M117,64.3c0,0,9.1,7.9,11-12.2C108.2,56.1,117,64.3,117,64.3z"></path> <path class="st0" d="M52,71.2c0,0,8.3-9.7-13.1-11.6C43.3,80.6,52,71.2,52,71.2z"></path> <path class="st0" d="M94.8,15.7c0,0,9.7,2.7,4-13.2C85.2,12.6,94.8,15.7,94.8,15.7z"></path> <path class="st0" d="M113,40.8c0,0,4.6,9.8,13.5-6C108.8,30.8,113,40.8,113,40.8z"></path> <path class="st0" d="M156.8,83.5c0,0,4.1,8.8,12.1-5.4C153,74.5,156.8,83.5,156.8,83.5z"></path> <path class="st0" d="M120.4,28.2c0,0,9.8,14.3,19.9-13.1C111.2,13.5,120.4,28.2,120.4,28.2z"></path> <path class="st0" d="M103.5,59c0,0,10.3,8.2,11.5-13.9C93.5,50.4,103.5,59,103.5,59z"></path> <path class="st0" d="M64,82.7c0,0,4.8-11.6-15.8-6.9C58.8,94.1,64,82.7,64,82.7z"></path> <path class="st0" d="M91.8,53.4c0,0,9.7,3.1,4.5-13.2C82.2,49.9,91.8,53.4,91.8,53.4z"></path> <path class="st0" d="M45.8,96.2c0,0,12.8-2.8-3.6-17.6C32.9,98.6,45.8,96.2,45.8,96.2z"></path> <path class="st0" d="M16.1,57c0,0,9.4-4.7-6.2-12.9C6.6,61.3,16.1,57,16.1,57z"></path> <path class="st0" d="M110.3,30.3c0,0,14-4.9-6.3-19.3C96.1,34.6,110.3,30.3,110.3,30.3z"></path> <path class="st0" d="M40.7,27.7c0,0,6.1-9.9-13.4-8.6C34.2,37.4,40.7,27.7,40.7,27.7z"></path> <path class="st0" d="M70.9,18.4c0,0,11.5-9.4-12.6-16C59,27.4,70.9,18.4,70.9,18.4z"></path> <path class="st0" d="M42.4,53.2c0,0,3.9-14.4-19.7-5.7C38,67.5,42.4,53.2,42.4,53.2z"></path> <path class="st0" d="M20,73.4c0,0-4-13.3-18.3,5.1C23.4,86.8,20,73.4,20,73.4z"></path> <path class="st0" d="M81,22.1c0,0,15.6,3.2,4.7-21.3C65.6,18.4,81,22.1,81,22.1z"></path> <path class="st0" d="M47.1,48.3c0,0,11.9,6.4,9.1-16.2C35.4,41.5,47.1,48.3,47.1,48.3z"></path> <path class="st0" d="M25.8,69.7c0,0,10.4-5.2-6.8-14.4C15.2,74.5,25.8,69.7,25.8,69.7z"></path> <path class="st0" d="M139.2,37.8c0,0,11.4,2.6,3.8-15.5C127.9,34.8,139.2,37.8,139.2,37.8z"></path> <path class="st0" d="M28.6,43.3c0,0,9.6-8.7-11.7-13.4C18.6,51.7,28.6,43.3,28.6,43.3z"></path> <path class="st0" d="M68.2,51.8c0,0,11.5-5.2-6.8-15.9C56.5,56.5,68.2,51.8,68.2,51.8z"></path> <path class="st0" d="M102.5,72.4c0,0,11.7-6.5-8.6-16.1C90.6,78.4,102.5,72.4,102.5,72.4z"></path> <path class="st0" d="M65.1,73c0,0,14,2.6,4-19.1C51.3,69.9,65.1,73,65.1,73z"></path> <path class="st0" d="M22.7,94c0,0-9.9-10.6-14.8,13.2C32.2,105,22.7,94,22.7,94z"></path> <path class="st0" d="M83.2,69.9c0,0,8.6,4.4,6.3-11.7C74.8,65.2,83.2,69.9,83.2,69.9z"></path> <g> <path class="st0" d="M72.7,148.7c0.5-6.1-0.7-14.8-0.5-18.2c-5-2.9-7.2-5.7-11.7-10.6c-18.7-24.2-32-23.3-32-23.3 c10.8,8.7,31.8,26.2,34,44.1c4.1,32.7-14.5,66.3-14.5,66.3c4.2,2.7,13.1,0.3,13.1,0.3s5.4-18.2,7.4-27.7 C69.9,172.9,71.6,160.5,72.7,148.7z"></path> <path class="st0" d="M92.4,142.2c3.6-37.6,18.9-66,23.5-76.6c-7.6,2.1-9,4.7-15.1,21.4c-6.5,17.9-7.2,20.6-14.7,46.8 c0,0-4.8-20-10.8-29.6c-3.6-5.7-13.7-17.2-20.1-14.9c0,0,25.9,21.4,23.8,58.1c-2.1,36.7-14.6,59.9-14.6,59.9s7.4,3.2,14.4-1.2 c0,0-0.4-5,1.8-22.2c1.4-11.2,3.3-19.6,3.3-19.6s0.3,39,2,42.6c4.6,2.1,12.8-0.6,12.8-0.6S88.4,184.2,92.4,142.2z"></path> <path class="st0" d="M151.3,82.6c-11.3,0.9-20.2,6.4-31.6,18.8c-10.4,11.2-9.2,14.5-19.7,24.7c-0.7,4.8-2.5,17-3,22.2 c-2.1,22.5,1.4,41.1,8.9,57.2c0,0,7.8,0.5,11.6-2.5c-5.8-10.1-16.4-46.2-8.6-70.3c7.3-22.3,23.2-41.4,40.7-47.6 c2.3-0.8,3.7-1.2,4.5-1.6C153.7,82.8,151.3,82.6,151.3,82.6z"></path> <path class="st0" d="M86.4,115.4c2.7-0.1,4.8-6.2,4.5-13.6c-0.2-7.4-2.7-13.4-5.4-13.3c-2.7,0.1-4.8,6.2-4.5,13.6 C81.3,109.5,83.7,115.5,86.4,115.4z"></path> <path class="st0" d="M68.3,120c1.8-1.3,0.5-6.4-3-11.4c-3.5-5-7.9-8-9.7-6.7c-1.8,1.3-0.5,6.4,3,11.4 C62.1,118.3,66.5,121.3,68.3,120z"></path> <path class="st0" d="M108.5,94.4c-3.1,5.7-4.1,11.1-2.2,12.1c1.9,1,5.9-2.7,8.9-8.4c3.1-5.7,4.1-11.1,2.2-12.1 C115.6,85,111.6,88.8,108.5,94.4z"></path> </g> </g> </g> </svg> 